# xmcd
#
# Track frame offsets: 
#        150
#        13537
#        27937
#        46200
#        57937
#        72487
#        88987
#        102825
#        116512
#        132412
#        152700
#        165075
#        177862
#        191287
#        205237
#        220912
#        235462
#        246075
#        265125
#        278062
#
# Disc length: 3963 seconds
#
# Revision: 1
# Processed by: cddbd v1.5.2PL0 Copyright (c) Steve Scherf et al.
# Submitted via: ExactAudioCopy v0.95a4
#
DISCID=150f7914
DTITLE=Various Artist - Bluegrass Hits
DYEAR=2005
DGENRE=Bluegrass
TTITLE0=Heartbreak Number Nine
TTITLE1=My First Mistake
TTITLE2=High Lonesome
TTITLE3=If Wishes Were Horses
TTITLE4=Me And John And Paul
TTITLE5=Still Climbing Mountains
TTITLE6=Drivin' Nails In My Coffin
TTITLE7=I Know The Way To You By Heart
TTITLE8=Tom Dooley
TTITLE9=Hard Times
TTITLE10=I Don't Know Why
TTITLE11=I Dreamed Of An Old Love Affair
TTITLE12=I've Waited As Long As I Can
TTITLE13=You'll Get No More Of Me
TTITLE14=Back To The Barrooms
TTITLE15=Lonely Moon
TTITLE16=Little Maggie
TTITLE17=Everybody's Reaching Out For Someone
TTITLE18=Sounds Of The Mountains
TTITLE19=Dream Of A Miner's Child
EXTD=
EXTT0=
EXTT1=
EXTT2=
EXTT3=
EXTT4=
EXTT5=
EXTT6=
EXTT7=
EXTT8=
EXTT9=
EXTT10=
EXTT11=
EXTT12=
EXTT13=
EXTT14=
EXTT15=
EXTT16=
EXTT17=
EXTT18=
EXTT19=
PLAYORDER=
